HIERARCHY
ROOT joint_0
{
	OFFSET 0.000000 0.000000 0.000000
	CHANNELS 6 Xposition Yposition Zposition Zrotation Yrotation Xrotation 
	JOINT joint_1
	{
		OFFSET 7.745728 2.152245 124.869995
		CHANNELS 3 Zrotation Yrotation Xrotation
		JOINT joint_2
		{
			OFFSET -6.359406 2.617477 113.975952
			CHANNELS 3 Zrotation Yrotation Xrotation
			JOINT joint_3
			{
				OFFSET -8.187927 3.340103 113.713013
				CHANNELS 3 Zrotation Yrotation Xrotation
				JOINT joint_4
				{
					OFFSET 2.859222 5.755905 159.680054
					CHANNELS 3 Zrotation Yrotation Xrotation
					JOINT joint_5
					{
						OFFSET 22.724274 2.598469 88.906982
						CHANNELS 3 Zrotation Yrotation Xrotation
						End Site
						{
							OFFSET 0.000000 0.000000 0.000000
						}
					}
				}
				JOINT joint_6
				{
					OFFSET 2.312134 -31.513222 90.723022
					CHANNELS 3 Zrotation Yrotation Xrotation
					JOINT joint_7
					{
						OFFSET -0.486389 -150.827950 -17.660034
						CHANNELS 3 Zrotation Yrotation Xrotation
						JOINT joint_8
						{
							OFFSET 15.633850 -16.961029 -297.395020
							CHANNELS 3 Zrotation Yrotation Xrotation
							JOINT joint_9
							{
								OFFSET 5.600098 1.609863 -262.782959
								CHANNELS 3 Zrotation Yrotation Xrotation
								End Site
								{
									OFFSET 0.000000 0.000000 0.000000
								}
							}
						}
					}
				}
				JOINT joint_10
				{
					OFFSET 1.012756 37.963039 88.243042
					CHANNELS 3 Zrotation Yrotation Xrotation
					JOINT joint_11
					{
						OFFSET -2.397430 150.471996 -20.492065
						CHANNELS 3 Zrotation Yrotation Xrotation
						JOINT joint_12
						{
							OFFSET -10.575745 12.779427 -297.765015
							CHANNELS 3 Zrotation Yrotation Xrotation
							JOINT joint_13
							{
								OFFSET 196.311081 2.689713 -176.286011
								CHANNELS 3 Zrotation Yrotation Xrotation
								End Site
								{
									OFFSET 0.000000 0.000000 0.000000
								}
							}
						}
					}
				}
			}
		}
	}
	JOINT joint_14
	{
		OFFSET 1.244965 -96.891136 -118.152039
		CHANNELS 3 Zrotation Yrotation Xrotation
		JOINT joint_15
		{
			OFFSET -2.982971 -16.401871 -443.439026
			CHANNELS 3 Zrotation Yrotation Xrotation
			JOINT joint_16
			{
				OFFSET -42.052063 -15.386002 -460.966980
				CHANNELS 3 Zrotation Yrotation Xrotation
				JOINT joint_17
				{
					OFFSET 177.916595 102.818184 -88.655001
					CHANNELS 3 Zrotation Yrotation Xrotation
					End Site
					{
						OFFSET 0.000000 0.000000 0.000000
					}
				}
			}
		}
	}
	JOINT joint_18
	{
		OFFSET 1.788635 96.476997 -118.463074
		CHANNELS 3 Zrotation Yrotation Xrotation
		JOINT joint_19
		{
			OFFSET -9.555542 8.093691 -443.574951
			CHANNELS 3 Zrotation Yrotation Xrotation
			JOINT joint_20
			{
				OFFSET -48.427551 9.415819 -460.500023
				CHANNELS 3 Zrotation Yrotation Xrotation
				JOINT joint_21
				{
					OFFSET 204.978119 20.223980 -87.523996
					CHANNELS 3 Zrotation Yrotation Xrotation
					End Site
					{
						OFFSET 0.000000 0.000000 0.000000
					}
				}
			}
		}
	}
}
MOTION
Frames: 11
Frame Time: 0.016667
-482.081696 -90.072556 1156.206055 7.134317 10.951311 1.582622 -3.433545 1.148572 -19.692620 -0.275286 0.293693 2.423302 -0.831885 -0.471307 -2.694727 2.079868 -2.769036 -6.206061 0.000000 0.000000 0.000000 14.517702 4.315745 -4.797833 -13.963568 6.830801 -8.464329 -8.804787 -37.443295 53.873277 0.000000 0.000000 0.000000 11.063172 -2.147364 4.914838 1.037939 -3.172446 15.601848 2.294262 -8.551462 2.247259 0.000000 0.000000 0.000000 -7.865609 4.256270 -2.932079 -6.939610 1.022653 -2.453831 -7.124290 5.235033 -6.212601 0.000000 0.000000 0.000000 -4.154827 -28.838368 26.162548 -6.248357 28.991074 -10.884858 -9.542001 -2.150567 -3.411934 0.000000 0.000000 0.000000 
-468.164276 -81.194557 1158.500000 6.994259 11.032700 1.532685 -3.129904 0.861598 -19.445826 -0.141473 0.296198 2.429504 -0.682465 -0.511598 -2.706977 2.185512 -2.177432 -6.496504 0.000000 0.000000 0.000000 13.233630 4.741876 -4.996363 -13.754758 7.021381 -8.589166 -8.673690 -39.046000 53.629598 0.000000 0.000000 0.000000 10.145598 -1.372050 4.905670 0.719798 -2.317332 16.613511 1.879274 -10.948755 1.911080 0.000000 0.000000 0.000000 -7.670663 4.532782 -3.238404 -6.725724 1.139588 -2.740798 -6.945397 6.858368 -7.064609 0.000000 0.000000 0.000000 -4.404438 -29.168666 25.924070 -6.398998 27.699839 -10.977835 -9.750699 -2.141417 -3.493156 0.000000 0.000000 0.000000 
-453.742035 -70.991653 1161.126953 6.552344 11.195510 1.457267 -2.564769 0.202012 -19.146286 0.130101 0.332833 2.449836 -0.394744 -0.640902 -2.739886 2.317202 -1.596964 -6.903743 0.000000 0.000000 0.000000 11.737859 5.179009 -5.037181 -13.438413 7.192971 -8.906538 -8.469597 -40.085655 53.299266 0.000000 0.000000 0.000000 8.831324 -0.358631 4.559097 0.488646 -1.164232 18.046218 1.553870 -13.610176 1.638565 0.000000 0.000000 0.000000 -7.500522 4.633961 -3.623267 -6.582002 1.255676 -2.974018 -6.822482 8.832908 -8.155029 0.000000 0.000000 0.000000 -4.649947 -29.642528 25.460295 -6.611433 27.085103 -11.341020 -10.115335 -2.237993 -3.630314 0.000000 0.000000 0.000000 
-439.579041 -59.946384 1163.681030 5.813913 11.350550 1.249867 -1.948871 -0.508859 -18.730137 0.421885 0.374894 2.442057 -0.081855 -0.777402 -2.748829 2.424023 -1.096402 -7.260597 0.000000 0.000000 0.000000 10.286895 5.622571 -5.128677 -13.065881 7.360830 -9.268015 -8.223746 -41.267931 52.875933 0.000000 0.000000 0.000000 7.613129 0.621040 4.184986 0.349794 -0.037798 19.144983 1.278949 -16.253493 1.396817 0.000000 0.000000 0.000000 -7.237400 4.513412 -4.043258 -6.404708 1.641849 -3.121105 -6.640159 10.899416 -9.286218 0.000000 0.000000 0.000000 -4.919480 -29.817110 24.918358 -6.853328 26.469657 -11.768998 -10.546379 -1.951621 -3.839614 0.000000 0.000000 0.000000 
-426.110626 -48.260643 1165.977051 4.684050 11.424438 0.839291 -1.380226 -1.073580 -18.153981 0.692370 0.397665 2.395781 0.217825 -0.872738 -2.704894 2.482429 -0.728552 -7.476450 0.000000 0.000000 0.000000 9.002229 6.050739 -5.383921 -12.654140 7.508820 -9.632229 -7.944251 -42.982186 52.366937 0.000000 0.000000 0.000000 6.819572 1.395180 4.026945 0.245464 0.836853 19.358149 0.958709 -18.686496 1.115523 0.000000 0.000000 0.000000 -6.736545 4.159487 -4.489435 -6.050760 2.419421 -3.177395 -6.243971 13.024185 -10.373455 0.000000 0.000000 0.000000 -5.205458 -29.322283 24.372769 -7.092194 25.371402 -12.145304 -10.956548 -0.933469 -4.126925 0.000000 0.000000 0.000000 
-413.047760 -35.750137 1168.170044 3.112776 11.422427 0.255511 -0.791329 -1.586633 -17.429232 1.014929 0.398360 2.327133 0.577453 -0.955934 -2.626630 2.515230 -0.471298 -7.623013 0.000000 0.000000 0.000000 7.776017 6.457240 -5.729044 -12.178249 7.622895 -10.061375 -7.614264 -44.954120 51.763541 0.000000 0.000000 0.000000 6.258897 2.053557 3.976319 0.133378 1.560351 18.966463 0.581951 -20.982986 0.785930 0.000000 0.000000 0.000000 -6.040122 3.586594 -4.974973 -5.540829 3.471698 -3.161364 -5.652991 15.360782 -11.521009 0.000000 0.000000 0.000000 -5.479350 -28.308945 23.759124 -7.331935 23.976047 -12.523174 -11.353901 0.720277 -4.490548 0.000000 0.000000 0.000000 
-400.680847 -22.927185 1169.884033 1.393681 11.360067 -0.473087 -0.326197 -1.964058 -16.621611 1.276238 0.397188 2.240793 0.873999 -0.996866 -2.541642 2.533819 -0.318144 -7.698973 0.000000 0.000000 0.000000 6.808148 6.865168 -6.077875 -11.672139 7.742301 -10.488645 -7.259291 -47.442111 50.918879 0.000000 0.000000 0.000000 5.940462 2.517171 3.981129 0.027544 2.049736 18.262940 0.202885 -23.127455 0.455925 0.000000 0.000000 0.000000 -5.410154 2.630116 -5.449335 -5.140430 5.189313 -3.025371 -5.127182 17.298165 -12.478246 0.000000 0.000000 0.000000 -5.861878 -27.032280 23.076390 -7.681631 22.333212 -12.674696 -11.782414 3.032718 -4.954512 0.000000 0.000000 0.000000 
-389.343842 -10.029333 1171.140015 -0.310134 11.259512 -1.301304 -0.082719 -2.126093 -15.891164 1.386382 0.409042 2.177047 1.009142 -0.960892 -2.450510 2.539641 -0.287542 -7.675141 0.000000 0.000000 0.000000 6.268317 7.312443 -6.366231 -11.131184 7.911810 -10.861372 -6.880984 -50.783876 49.586444 0.000000 0.000000 0.000000 5.976213 2.675867 4.036927 -0.066140 2.171756 17.373184 -0.150017 -25.060590 0.156411 0.000000 0.000000 0.000000 -4.965205 1.156735 -5.897285 -4.959290 7.847339 -2.838725 -4.817089 18.554814 -13.130780 0.000000 0.000000 0.000000 -6.703676 -25.473478 22.327634 -8.543715 20.040662 -12.510185 -12.598041 6.738658 -5.760847 0.000000 0.000000 0.000000 
-378.919434 3.144521 1172.094971 -2.226607 11.033603 -2.226703 0.021937 -2.005802 -15.288527 1.440238 0.373646 2.163283 1.078373 -0.856609 -2.341660 2.529082 -0.377130 -7.554811 0.000000 0.000000 0.000000 6.057882 7.786053 -6.563331 -10.502472 8.098496 -11.263336 -6.448323 -54.765268 47.715533 0.000000 0.000000 0.000000 6.354143 2.555136 4.176346 -0.194306 1.940540 16.221809 -0.513394 -26.735759 -0.140342 0.000000 0.000000 0.000000 -4.580705 -0.727030 -6.331772 -4.820122 11.261081 -2.715981 -4.631988 19.476995 -13.638328 0.000000 0.000000 0.000000 -8.155830 -23.331736 21.494295 -10.152596 16.826477 -12.005416 -13.961255 12.039762 -7.062599 0.000000 0.000000 0.000000 
-368.829712 16.097828 1171.458984 -4.327633 10.617584 -3.213986 0.133679 -1.730762 -14.666619 1.519703 0.299388 2.135607 1.166074 -0.740751 -2.266663 2.519672 -0.477045 -7.429931 0.000000 0.000000 0.000000 5.979705 8.219660 -6.572795 -9.838248 8.210356 -11.812260 -5.997350 -58.495704 45.748038 0.000000 0.000000 0.000000 6.607803 2.411552 4.373861 -0.330328 1.691563 15.094549 -0.857824 -28.333185 -0.426823 0.000000 0.000000 0.000000 -4.458069 -3.006236 -6.722326 -4.910102 15.553607 -2.614226 -4.941104 19.493640 -13.795665 0.000000 0.000000 0.000000 -9.161271 -21.284891 20.436728 -11.152934 14.825424 -10.952356 -14.561001 15.531899 -7.890093 0.000000 0.000000 0.000000 
-358.558868 28.567104 1168.009033 -6.484597 10.094070 -4.190429 0.341163 -1.623337 -14.021573 1.654193 0.292798 2.112099 1.301504 -0.662091 -2.231580 2.517821 -0.508341 -7.341267 0.000000 0.000000 0.000000 5.877086 8.601686 -6.415541 -9.280400 8.204432 -12.614773 -5.627050 -61.677135 44.301225 0.000000 0.000000 0.000000 6.370287 2.440495 4.688003 -0.459830 1.682822 14.094539 -1.196081 -30.055048 -0.727412 0.000000 0.000000 0.000000 -4.741746 -5.921230 -7.121977 -5.410216 21.360545 -2.541800 -6.391287 18.011776 -13.467280 0.000000 0.000000 0.000000 -8.207478 -20.231942 18.778906 -9.496341 16.273608 -9.244936 -12.589841 14.099686 -6.872879 0.000000 0.000000 0.000000 
